<?xml version="1.0" encoding="UTF-8" standalone="no"?>
<!DOCTYPE svg PUBLIC "-//W3C//DTD SVG 1.1//EN" "http://www.w3.org/Graphics/SVG/1.1/DTD/svg11.dtd">
<svg xmlns="http://www.w3.org/2000/svg" version="1.1" viewBox="0.00 0.00 480.00 499.00">
<path fill="#ffffff" d="
  M 254.19 366.32
  Q 251.44 365.44 249.59 367.32
  Q 249.22 367.69 248.70 367.71
  C 237.96 368.09 230.53 367.29 221.82 369.03
  Q 220.90 369.22 220.94 370.17
  Q 221.03 372.03 221.56 374.24
  Q 223.97 384.18 225.97 394.20
  Q 228.07 404.68 230.33 415.13
  C 230.46 415.77 230.84 416.46 231.10 417.09
  Q 231.28 417.55 231.21 418.05
  Q 230.81 420.88 231.63 423.64
  Q 231.78 424.16 231.60 424.67
  Q 231.39 425.28 231.43 425.93
  A 0.79 0.78 -83.1 0 0 231.98 426.64
  Q 233.15 427.01 234.25 426.48
  Q 234.79 426.22 235.38 426.35
  Q 239.55 427.24 243.28 429.21
  Q 246.79 431.07 248.09 434.02
  Q 249.93 438.18 248.51 443.02
  C 246.79 448.91 245.49 454.90 241.37 458.45
  Q 238.53 460.91 236.65 464.19
  Q 236.39 464.64 235.90 464.79
  C 231.02 466.29 226.35 469.78 222.01 472.48
  Q 221.04 473.08 218.94 473.28
  Q 218.49 473.32 218.22 473.68
  L 216.53 475.94
  Q 216.29 476.25 216.40 476.62
  L 216.71 477.75
  A 0.35 0.35 0.0 0 1 216.23 478.17
  Q 215.10 477.68 214.32 476.73
  Q 213.70 475.96 212.93 476.59
  L 211.94 477.41
  Q 211.55 477.73 211.06 477.68
  C 207.44 477.29 194.45 480.19 196.39 471.92
  C 196.82 470.06 197.17 467.33 199.23 466.52
  C 201.30 465.71 204.13 465.04 205.21 462.95
  Q 205.46 462.48 205.97 462.60
  C 206.80 462.78 207.55 462.82 208.31 462.33
  Q 216.09 457.33 224.29 453.06
  C 226.08 452.13 227.34 450.55 228.41 449.06
  Q 230.31 446.40 227.14 447.19
  C 225.10 447.69 223.00 446.35 220.87 446.29
  Q 207.91 445.95 195.06 444.47
  C 189.43 443.82 181.22 443.20 175.50 441.48
  Q 171.94 440.42 169.74 439.94
  C 165.33 438.98 165.09 433.27 167.38 430.43
  A 1.60 1.54 11.5 0 1 168.20 429.91
  Q 169.22 429.66 169.95 429.03
  C 171.28 427.87 172.33 427.54 173.94 427.29
  C 175.08 427.11 176.37 427.70 177.75 427.18
  A 1.51 1.51 0.0 0 1 178.72 427.15
  C 180.80 427.74 182.62 427.18 184.54 427.75
  C 187.82 428.73 191.41 430.48 192.02 425.29
  Q 192.44 421.72 195.45 419.66
  C 198.07 417.87 200.45 420.29 203.03 420.83
  Q 208.17 421.89 211.87 422.83
  Q 214.65 423.53 214.18 420.70
  Q 212.93 413.10 211.49 406.50
  Q 211.42 406.20 210.79 405.67
  A 1.31 1.30 -72.5 0 1 210.35 404.81
  Q 209.91 400.01 209.59 398.75
  Q 206.08 384.87 205.16 373.74
  Q 204.82 369.56 201.01 369.36
  Q 196.00 369.10 191.04 368.58
  C 187.45 368.20 182.89 368.93 178.60 367.45
  Q 178.15 367.30 177.83 366.96
  Q 177.67 366.79 177.52 366.61
  Q 177.51 366.59 177.49 366.58
  C 172.53 365.53 167.26 365.01 162.65 363.74
  Q 158.70 362.66 154.79 361.45
  C 148.06 359.38 142.03 355.29 135.75 351.95
  Q 127.10 347.36 116.10 337.91
  Q 113.87 335.98 107.55 328.84
  Q 104.94 325.90 102.71 322.09
  C 99.44 316.53 96.26 313.19 93.68 308.40
  C 89.56 300.74 85.13 294.29 82.61 285.77
  C 82.17 284.26 81.05 283.00 80.66 281.00
  C 78.60 270.44 76.26 256.61 78.63 246.49
  Q 81.02 236.30 82.67 232.98
  Q 85.61 227.06 88.23 220.99
  Q 89.16 218.83 88.24 215.76
  C 87.05 211.80 84.81 213.87 82.99 211.58
  Q 82.65 211.15 82.15 211.38
  L 81.79 211.55
  Q 81.34 211.77 81.10 211.33
  Q 80.21 209.77 79.91 207.12
  Q 79.81 206.25 78.71 205.83
  Q 78.27 205.66 78.19 205.20
  L 77.80 202.97
  Q 77.71 202.46 77.28 202.16
  Q 75.56 200.97 75.95 198.76
  A 0.45 0.45 0.0 0 0 75.26 198.30
  Q 74.60 198.73 73.87 198.37
  A 0.79 0.78 -68.8 0 1 73.46 197.44
  L 73.82 196.19
  Q 74.22 194.84 72.98 195.52
  Q 71.10 196.58 68.75 197.10
  C 66.59 197.58 64.10 197.07 61.66 197.40
  Q 58.23 197.86 57.33 197.63
  C 53.34 196.63 51.56 191.81 51.04 188.21
  C 50.02 181.17 44.28 172.79 51.37 166.66
  Q 53.68 164.66 56.38 163.22
  Q 56.92 162.94 56.66 162.39
  Q 55.41 159.79 56.82 157.32
  A 0.15 0.14 6.8 0 0 56.65 157.11
  Q 52.17 158.30 49.97 157.30
  C 46.55 155.76 43.32 153.37 40.22 151.78
  Q 33.18 148.17 26.88 143.37
  Q 19.27 137.58 22.81 128.31
  C 23.40 126.76 25.01 125.81 25.83 124.36
  Q 27.56 121.29 29.48 119.97
  Q 34.80 116.32 40.02 112.52
  C 42.79 110.51 46.60 109.89 48.33 106.85
  C 49.03 105.62 48.75 103.65 49.76 102.23
  C 52.71 98.11 54.81 93.79 58.10 89.80
  Q 58.40 89.45 58.45 88.99
  Q 58.51 88.39 59.04 88.18
  Q 59.50 87.99 59.82 87.60
  C 62.06 84.84 64.13 82.41 66.97 80.01
  C 69.53 77.84 72.33 74.37 75.68 73.69
  Q 76.09 73.61 76.05 73.19
  L 75.98 72.51
  Q 75.93 72.03 75.50 72.23
  L 74.60 72.65
  A 0.94 0.94 0.0 0 1 73.28 71.63
  C 73.95 67.94 74.14 64.83 73.89 60.80
  Q 72.95 45.47 74.23 37.01
  Q 76.06 24.88 87.23 20.74
  C 92.16 18.92 99.94 20.59 105.06 21.81
  C 111.25 23.28 116.46 22.43 122.01 26.01
  Q 129.04 30.53 136.04 34.60
  A 2.15 2.14 42.7 0 0 138.32 34.51
  C 148.43 27.53 154.15 23.52 166.99 25.03
  C 176.33 26.14 184.06 36.88 186.07 45.36
  Q 187.20 50.13 189.01 54.68
  C 190.73 59.03 191.64 62.33 192.76 66.38
  C 194.68 73.34 192.17 84.56 190.18 91.45
  C 189.47 93.91 187.43 95.78 186.96 98.73
  Q 186.88 99.25 187.22 99.65
  C 189.77 102.62 193.11 104.61 195.09 107.82
  C 196.89 110.71 198.56 113.31 199.55 116.61
  Q 204.73 133.83 206.33 153.76
  C 206.89 160.74 210.14 166.38 212.18 173.29
  Q 212.91 175.77 214.32 178.11
  Q 215.82 180.59 217.04 183.18
  A 1.59 1.59 0.0 0 0 218.58 184.09
  L 222.26 183.85
  Q 222.69 183.83 222.61 183.40
  Q 222.55 183.15 222.41 182.93
  Q 221.94 182.24 222.78 182.19
  C 225.27 182.04 227.52 182.67 229.74 182.48
  Q 234.83 182.05 239.91 181.63
  Q 240.98 181.54 244.96 180.59
  Q 248.16 179.82 251.76 180.50
  C 259.13 181.90 267.07 181.65 274.88 181.88
  Q 292.06 182.38 304.75 181.55
  Q 305.99 181.47 307.33 180.72
  Q 308.72 179.95 309.76 179.70
  Q 313.09 178.89 316.27 177.56
  Q 316.66 177.40 316.62 176.98
  Q 316.61 176.84 316.61 176.71
  Q 316.62 176.25 317.05 176.41
  C 317.66 176.65 317.91 176.81 318.58 176.59
  Q 333.08 172.02 347.59 167.49
  Q 348.13 167.32 347.64 167.04
  Q 347.30 166.83 346.81 166.95
  Q 346.28 167.09 346.51 166.60
  Q 346.62 166.37 346.87 166.36
  C 348.32 166.26 349.44 166.79 350.99 166.28
  Q 363.04 162.27 376.51 161.14
  C 382.85 160.61 388.52 161.01 393.30 165.72
  Q 393.99 166.40 393.87 165.44
  Q 393.72 164.33 394.24 163.38
  A 0.77 0.77 0.0 0 1 395.37 163.12
  Q 395.98 163.57 396.19 164.31
  Q 396.45 165.25 397.02 164.45
  C 399.05 161.60 402.89 161.86 405.30 161.15
  C 413.68 158.69 423.19 156.86 432.04 159.01
  C 434.90 159.71 437.32 161.41 439.87 162.98
  Q 440.31 163.25 440.84 163.27
  Q 441.69 163.31 441.46 164.32
  A 0.80 0.79 -70.1 0 0 441.87 165.21
  Q 445.56 167.13 448.11 170.43
  A 1.77 1.76 -10.6 0 0 449.01 171.04
  Q 451.72 171.83 453.57 173.81
  C 455.18 175.53 457.13 176.51 458.43 178.47
  Q 458.71 178.89 459.21 178.95
  L 461.22 179.18
  Q 461.78 179.24 461.95 179.77
  C 464.78 188.50 462.30 196.70 458.79 204.74
  Q 457.00 208.85 450.15 215.15
  Q 449.19 216.03 447.75 218.22
  Q 447.48 218.63 447.00 218.77
  L 445.26 219.28
  A 0.64 0.63 -28.9 0 0 444.96 220.31
  C 446.62 222.17 448.67 223.82 449.51 226.33
  Q 453.34 237.85 451.69 252.00
  Q 451.51 253.58 450.90 254.27
  Q 450.57 254.63 450.54 255.12
  Q 450.47 256.12 450.12 257.06
  C 446.74 266.39 440.67 270.72 433.61 276.94
  Q 433.26 277.25 432.81 277.26
  Q 432.63 277.27 432.44 277.30
  Q 432.30 277.32 432.16 277.40
  Q 429.87 278.80 427.79 280.47
  C 423.89 283.62 424.68 288.62 423.31 292.74
  Q 422.61 294.86 422.16 297.37
  C 420.68 305.63 412.65 313.05 405.51 316.68
  C 398.66 320.16 392.18 323.22 384.66 326.11
  Q 374.60 329.98 364.61 333.99
  C 363.85 334.29 362.74 334.25 362.10 335.17
  Q 361.81 335.58 361.35 335.80
  C 354.73 338.93 347.66 341.67 341.35 344.75
  C 337.13 346.80 333.44 348.66 328.68 350.23
  Q 322.62 352.23 316.95 355.21
  Q 314.62 356.44 311.82 357.00
  C 307.17 357.93 302.65 360.05 298.51 360.94
  C 288.57 363.06 279.91 363.33 270.48 363.92
  C 267.47 364.11 264.56 364.67 261.69 365.27
  Q 260.97 365.42 261.65 365.71
  L 268.17 368.42
  A 0.70 0.69 -83.3 0 1 268.59 368.96
  C 270.91 382.41 274.84 395.93 278.78 409.29
  Q 280.51 415.20 281.12 421.51
  A 1.24 1.23 -13.9 0 0 282.82 422.53
  C 284.85 421.70 286.52 422.40 288.62 422.46
  C 303.67 422.91 286.72 456.09 283.01 461.01
  Q 280.53 464.31 279.69 468.32
  Q 279.59 468.82 279.08 468.89
  Q 274.99 469.49 271.02 468.76
  C 263.61 467.41 264.99 458.42 267.74 453.78
  C 269.17 451.37 269.83 450.07 270.03 447.67
  A 0.24 0.24 0.0 0 0 269.77 447.41
  L 258.89 448.20
  A 0.78 0.77 85.6 0 1 258.06 447.48
  C 257.77 443.55 257.40 437.36 261.41 434.60
  C 262.54 433.83 262.95 433.16 263.71 432.16
  Q 264.01 431.77 264.49 431.82
  L 266.22 432.03
  Q 266.82 432.10 266.63 431.52
  Q 266.30 430.50 266.78 429.54
  Q 267.02 429.06 266.90 428.54
  C 266.38 426.29 266.04 424.06 265.29 421.89
  C 261.34 410.43 259.64 401.45 257.36 390.95
  Q 257.26 390.46 256.94 390.07
  Q 256.53 389.58 256.46 389.26
  C 254.70 381.69 252.93 375.73 253.02 369.73
  Q 253.05 367.44 254.22 366.51
  Q 254.39 366.38 254.19 366.32
  Z
  M 175.24 85.83
  Q 175.78 86.39 175.84 85.61
  C 176.21 80.01 177.76 75.52 175.95 69.99
  Q 173.25 61.72 170.45 53.48
  C 168.47 47.67 165.95 44.26 160.63 41.83
  C 155.16 39.32 150.82 42.48 147.91 46.92
  C 145.65 50.38 137.36 55.14 133.00 53.45
  C 128.97 51.88 125.46 48.38 122.37 46.49
  C 118.28 43.99 110.95 38.45 106.03 39.11
  C 104.34 39.33 101.35 40.44 99.80 39.45
  C 97.25 37.81 94.77 35.62 91.50 35.92
  C 89.10 36.14 88.86 40.45 88.64 42.26
  Q 87.29 53.74 88.14 65.49
  A 1.30 1.30 0.0 0 0 90.15 66.48
  Q 96.05 62.61 103.44 61.61
  C 104.95 61.41 106.10 60.36 107.50 60.23
  C 114.52 59.61 121.33 57.01 129.25 57.01
  C 132.23 57.02 135.77 56.72 138.76 57.81
  C 145.58 60.30 151.91 65.50 156.94 69.04
  C 164.10 74.07 169.20 79.74 175.24 85.83
  Z
  M 64.19 143.48
  Q 61.19 144.83 58.32 143.20
  A 0.25 0.24 22.2 0 0 57.96 143.35
  L 57.86 143.75
  Q 57.75 144.14 58.05 144.42
  Q 58.50 144.85 59.07 145.06
  Q 59.61 145.24 59.79 145.78
  C 60.92 149.01 65.46 148.01 68.26 148.05
  A 1.26 1.26 0.0 0 1 69.43 149.73
  Q 68.76 151.65 70.37 153.82
  Q 77.06 162.82 82.34 172.65
  A 0.30 0.30 0.0 0 0 82.86 172.67
  C 84.71 169.71 94.66 170.23 94.99 174.76
  Q 95.05 175.57 95.82 175.78
  C 98.96 176.66 100.38 177.02 101.22 180.48
  C 101.91 183.33 103.04 185.95 99.57 187.57
  Q 96.14 189.18 92.93 189.89
  C 91.85 190.13 90.44 189.79 89.21 190.35
  Q 88.72 190.57 88.97 191.05
  Q 89.99 192.94 90.23 195.08
  Q 90.29 195.62 90.77 195.88
  C 91.72 196.41 91.91 196.87 91.91 198.00
  C 91.93 201.50 92.42 204.16 95.34 206.55
  Q 98.98 209.53 102.62 212.14
  A 3.62 3.61 25.9 0 1 103.99 216.08
  C 101.94 223.13 100.44 227.57 97.15 236.59
  C 94.70 243.30 92.75 250.66 93.77 257.92
  C 94.71 264.51 95.36 271.66 97.08 277.37
  Q 99.70 286.08 104.11 293.14
  Q 112.37 306.38 120.62 319.63
  Q 121.78 321.48 124.12 323.30
  C 124.89 323.90 124.95 324.86 125.80 325.56
  C 137.12 334.99 150.18 343.13 164.10 348.33
  Q 169.26 350.26 176.41 351.36
  C 185.00 352.68 193.27 354.14 202.32 354.41
  Q 207.41 354.57 215.66 353.98
  C 227.78 353.11 240.11 352.96 251.94 351.37
  Q 260.39 350.24 268.84 349.10
  C 274.11 348.39 280.60 347.99 285.00 347.33
  Q 298.90 345.24 310.09 341.09
  Q 328.25 334.36 348.92 324.84
  C 360.61 319.45 371.43 315.14 382.79 310.49
  C 390.15 307.48 405.34 301.22 405.93 291.75
  Q 406.20 287.50 406.51 283.24
  C 406.67 281.03 406.29 278.65 406.43 276.28
  Q 406.54 274.21 406.27 271.21
  Q 405.70 264.99 409.99 259.63
  A 1.85 1.85 0.0 0 1 412.77 259.50
  Q 414.86 261.68 417.82 262.25
  Q 418.37 262.35 418.70 262.80
  L 419.85 264.31
  A 1.96 1.96 0.0 0 0 422.57 264.70
  C 426.04 262.15 433.47 257.01 434.84 252.76
  C 437.09 245.83 435.37 240.54 433.56 233.88
  Q 433.43 233.41 433.07 233.08
  C 432.08 232.19 431.78 230.92 430.98 230.03
  Q 427.59 226.31 427.32 224.77
  Q 426.55 220.54 428.42 217.66
  Q 433.01 210.55 440.54 202.57
  Q 444.54 198.34 445.35 196.06
  C 447.68 189.45 442.52 186.03 437.69 182.74
  C 432.58 179.26 428.18 173.33 421.24 173.11
  C 417.10 172.98 410.91 174.20 406.29 176.33
  Q 390.95 183.40 374.27 186.43
  C 370.17 187.17 364.85 187.37 362.28 183.54
  Q 361.97 183.09 361.98 182.53
  L 362.02 178.78
  Q 362.03 178.31 361.57 178.38
  C 358.33 178.85 355.81 180.54 352.77 181.24
  Q 350.00 181.88 347.41 183.05
  C 345.50 183.91 343.42 184.18 341.55 185.11
  Q 340.54 185.61 341.66 185.71
  C 343.88 185.89 346.11 186.03 348.28 186.94
  C 352.50 188.73 357.01 189.97 360.57 192.63
  C 368.60 198.62 374.23 205.95 375.52 216.24
  C 377.85 234.91 369.22 246.35 351.30 250.33
  A 0.54 0.53 76.7 0 0 350.90 250.98
  Q 352.89 259.23 351.79 267.40
  C 351.64 268.51 352.08 269.44 350.80 270.26
  A 0.96 0.94 -15.9 0 0 350.37 271.01
  C 349.88 281.09 333.10 285.26 325.09 285.52
  C 322.22 285.61 318.35 284.65 314.75 285.05
  Q 314.13 285.12 314.38 285.69
  C 317.42 292.66 315.31 298.04 312.71 304.63
  C 309.35 313.17 301.54 313.95 293.63 312.27
  Q 292.56 312.05 288.65 310.40
  Q 283.82 308.36 278.66 310.24
  A 1.55 1.54 87.1 0 0 277.70 311.31
  C 277.02 314.09 276.35 318.26 273.82 320.04
  C 268.61 323.71 265.05 322.71 258.07 321.54
  Q 250.78 320.31 243.50 319.02
  C 236.00 317.69 237.25 310.85 235.53 305.74
  C 233.51 299.77 227.67 298.94 225.66 294.12
  C 224.74 291.91 225.19 287.96 227.96 287.12
  C 232.65 285.69 242.80 292.80 245.81 296.15
  C 248.35 298.97 250.53 300.04 250.00 304.40
  A 2.15 2.14 7.2 0 0 251.86 306.79
  L 262.76 308.16
  Q 263.40 308.24 263.63 307.64
  C 264.19 306.19 264.63 304.81 265.56 303.62
  C 269.32 298.80 277.60 292.36 284.27 294.28
  C 289.88 295.89 298.09 302.28 303.87 296.61
  C 308.94 291.63 295.09 283.15 291.99 281.24
  C 286.68 277.96 292.01 266.40 297.68 268.52
  C 300.60 269.62 303.52 271.03 306.56 271.44
  C 312.48 272.23 339.28 274.21 338.74 263.49
  C 338.64 261.59 338.02 258.63 337.11 256.63
  C 335.67 253.48 335.73 248.24 331.79 247.50
  Q 329.17 247.00 328.83 246.87
  C 326.69 246.04 325.55 246.43 324.48 243.80
  Q 322.36 238.58 324.82 234.44
  Q 327.50 229.92 332.17 228.15
  A 2.76 2.73 52.8 0 1 334.78 228.52
  Q 336.56 229.85 338.77 230.18
  A 1.31 1.27 -13.8 0 1 339.59 230.66
  C 341.05 232.52 342.70 234.90 344.92 235.85
  A 1.35 1.33 -40.2 0 0 345.83 235.92
  C 348.72 235.14 352.14 234.90 354.54 233.54
  C 363.92 228.22 360.34 215.12 354.94 208.29
  C 352.52 205.22 348.77 203.88 346.09 200.98
  C 344.94 199.73 342.06 199.82 340.37 199.33
  Q 339.89 199.19 339.44 199.39
  C 336.42 200.72 334.14 196.72 333.65 194.38
  Q 333.53 193.81 332.95 193.89
  C 331.62 194.09 330.32 194.72 329.14 194.84
  Q 322.69 195.51 316.21 195.92
  C 305.85 196.57 294.86 198.14 284.50 198.03
  Q 275.26 197.94 262.59 196.93
  C 259.08 196.65 254.46 195.33 249.76 195.32
  Q 237.21 195.29 225.26 198.01
  A 2.33 2.33 0.0 0 0 223.51 199.77
  L 222.64 203.61
  Q 222.54 204.05 222.17 204.32
  Q 219.84 206.01 218.10 205.40
  C 215.50 204.48 212.54 203.85 211.15 201.14
  Q 210.45 199.77 209.64 198.44
  Q 209.41 198.05 208.98 197.96
  Q 208.29 197.81 207.54 197.91
  A 1.79 1.79 0.0 0 1 205.56 196.58
  C 204.60 192.82 205.52 190.87 202.80 187.59
  Q 202.48 187.21 201.99 187.15
  C 199.92 186.90 193.83 184.93 193.39 182.56
  C 192.44 177.50 189.39 172.04 188.16 165.73
  C 186.82 158.80 186.52 151.19 185.72 144.00
  Q 185.22 139.56 182.00 127.93
  C 179.18 117.78 170.11 109.24 162.66 101.59
  C 162.03 100.94 161.70 99.92 161.07 99.21
  Q 152.04 89.03 148.79 86.20
  C 141.71 80.04 137.06 77.14 130.93 72.70
  C 128.97 71.28 127.53 70.77 125.26 71.12
  C 113.73 72.87 102.50 74.42 92.02 79.84
  C 81.91 85.07 75.16 92.58 68.49 101.99
  C 61.65 111.62 62.48 118.69 63.19 130.91
  Q 63.29 132.53 64.24 135.15
  Q 65.57 138.80 64.75 142.78
  Q 64.65 143.27 64.19 143.48
  Z
  M 47.97 126.08
  A 1.02 1.02 0.0 0 0 46.70 125.08
  C 44.67 125.61 41.84 129.52 40.17 131.43
  A 1.36 1.36 0.0 0 0 40.55 133.53
  L 50.74 139.02
  A 0.75 0.75 0.0 0 0 51.74 138.74
  Q 52.19 138.00 51.76 136.97
  C 50.28 133.41 47.92 130.04 47.97 126.08
  Z
  M 69.45 177.60
  L 67.42 173.83
  A 1.99 1.97 -30.2 0 0 64.62 173.10
  L 63.71 173.67
  A 1.39 1.39 0.0 0 0 63.45 175.81
  Q 64.93 177.35 65.05 179.53
  A 1.71 1.71 0.0 0 0 67.40 181.03
  L 68.36 180.64
  Q 70.60 179.73 69.45 177.60
  Z"
/>
<path fill="#ffffff" d="
  M 102.09 115.91
  C 105.31 109.14 113.59 108.50 119.51 111.95
  C 122.52 113.70 121.60 116.82 120.90 119.50
  C 120.28 121.90 118.55 122.84 116.25 122.98
  Q 110.37 123.34 104.50 122.78
  C 100.77 122.43 100.85 118.50 102.09 115.91
  Z"
/>
</svg>
